HIERARCHY
ROOT Hips
{
	OFFSET 0.000000 0.000000 0.000000 
	CHANNELS 6 Xposition Yposition Zposition Yrotation Zrotation Xrotation 
	JOINT Lumbar
	{
		OFFSET 0.000000 0.000000 0.000000 
		CHANNELS 3 Zrotation Xrotation Yrotation
		JOINT Neck
		{
			OFFSET 0.000000 0.445665 0.000000 
			CHANNELS 3 Zrotation Xrotation Yrotation
			End Site
			{
				OFFSET 0.000000 0.227535 0.000000 
			}
		}
		JOINT RightShoulder
		{
			OFFSET 0.019635 0.377685 0.194865 
			CHANNELS 3 Zrotation Xrotation Yrotation
			JOINT RightElbow
			{
				OFFSET 0.000000 -0.243375 0.000000 
				CHANNELS 2 Zrotation Yrotation
				JOINT RightWrist
				{
					OFFSET 0.000000 -0.264825 0.000000 
					CHANNELS 2 Zrotation Xrotation
					End Site
					{
						OFFSET 0.006600 -0.176220 0.000990 
					}
				}
			}
		}
		JOINT LeftShoulder
		{
			OFFSET 0.019635 0.377685 -0.194865 
			CHANNELS 3 Zrotation Xrotation Yrotation
			JOINT LeftElbow
			{
				OFFSET 0.000000 -0.243375 0.000000 
				CHANNELS 2 Zrotation Yrotation
				JOINT LeftWrist
				{
					OFFSET 0.000000 -0.264825 0.000000 
					CHANNELS 2 Zrotation Xrotation
					End Site
					{
						OFFSET 0.006600 -0.176220 -0.000990 
					}
				}
			}
		}
	}
	JOINT RightHip
	{
		OFFSET 0.052140 -0.069960 0.075570 
		CHANNELS 3 Zrotation Xrotation Yrotation
		JOINT RightKnee
		{
			OFFSET 0.000000 -0.402270 0.000000 
			CHANNELS 1 Zrotation
			JOINT RightAnkle
			{
				OFFSET 0.000000 -0.404085 0.000000 
				CHANNELS 3 Zrotation Xrotation Yrotation
				End Site
				{
					OFFSET 0.204105 -0.089430 0.008415 
				}
			}
		}
	}
	JOINT LeftHip
	{
		OFFSET 0.052140 -0.069960 -0.075570 
		CHANNELS 3 Zrotation Xrotation Yrotation
		JOINT LeftKnee
		{
			OFFSET 0.000000 -0.402270 0.000000 
			CHANNELS 1 Zrotation
			JOINT LeftAnkle
			{
				OFFSET 0.000000 -0.404085 0.000000 
				CHANNELS 3 Zrotation Xrotation Yrotation
				End Site
				{
					OFFSET 0.204105 -0.089430 -0.008415 
				}
			}
		}
	}
}
MOTION
Frames: 24
Frame Time: 0.02
-0.42348 -0.46711 0.14836 27.74639 27.61319 -9.02531 23.08308 5.68358 -9.27407 -32.92068 -5.19666 -0.82781 115.57671 -33.25536 54.06629 109.53667 93.64657 -15.86129 -6.81635 114.74623 39.49907 -46.99262 109.56593 -82.95426 -4.55469 6.94136 63.38926 -1.7013 -26.86546 -0.54512 -38.59211 12.60496 8.30274 58.73555 4.5018 8.77588 -0.57535 -45.76802 -14.37885 -9.92678
-0.42347 -0.46688 0.14814 27.78805 27.49984 -9.0547 23.14518 5.70341 -9.2984 -32.95092 -5.16102 -0.82781 116.94297 -33.98041 55.72561 109.48736 97.09527 -18.46693 -7.06965 116.59071 40.48314 -49.26804 109.48981 -88.13318 -7.88098 7.33113 63.09357 -1.70853 -26.47436 -0.54641 -38.61903 12.57967 8.16369 59.08185 4.2899 8.94201 -0.56558 -45.69553 -14.28129 -9.84302
-0.42347 -0.46657 0.14785 27.83455 27.37998 -9.08335 23.20859 5.73201 -9.31325 -32.97233 -5.13597 -0.82781 118.60755 -34.83803 57.79115 109.40612 101.47124 -21.81845 -7.38141 118.78973 41.67988 -52.0448 109.41436 -94.6136 -12.06339 7.81456 62.8821 -1.68017 -26.30728 -0.54723 -38.64275 12.65077 7.99989 59.3961 4.02651 9.05967 -0.56768 -45.58192 -14.13003 -9.72168
-0.42346 -0.4663 0.1476 27.87853 27.26518 -9.11227 23.27033 5.75513 -9.33305 -33.00131 -5.10584 -0.82781 120.04309 -35.59326 59.56375 109.34371 105.18748 -24.63585 -7.65288 120.71781 42.72076 -54.45197 109.34021 -100.1437 -15.6225 8.22936 62.6376 -1.66612 -26.03692 -0.54826 -38.67409 12.67093 7.85084 59.72041 3.78936 9.20123 -0.56738 -45.48356 -13.99589 -9.61467
-0.42349 -0.466 0.14733 27.92441 27.1407 -9.14217 23.33639 5.78462 -9.35079 -33.01589 -5.07637 -0.82782 121.87761 -36.53003 61.79858 109.26399 109.91281 -28.28265 -7.9825 123.10526 44.00756 -57.44909 109.2584 -107.16568 -20.15393 8.75262 62.37152 -1.65816 -25.76783 -0.54933 -38.6804 12.71952 7.68751 60.06967 3.53704 9.31724 -0.56558 -45.35908 -13.86806 -9.50067
-0.42343 -0.46574 0.14709 27.96748 27.03522 -9.16968 23.39365 5.80298 -9.37009 -33.05787 -5.04813 -0.82782 122.95845 -37.12266 63.17393 109.21237 112.77327 -30.39202 -8.20578 124.62967 44.83886 -59.35016 109.1933 -111.4252 -22.88717 9.07477 62.17017 -1.62973 -25.55126 -0.55019 -38.73709 12.73186 7.54723 60.35722 3.30484 9.48038 -0.56565 -45.29348 -13.72353 -9.39907
-0.42308 -0.46558 0.14697 27.99891 26.9829 -9.18968 23.42868 5.78738 -9.39862 -33.18088 -5.02183 -0.82783 121.78471 -36.68433 61.97026 109.24599 110.04115 -27.89 -8.10932 123.58718 44.30311 -57.97501 109.17082 -107.40915 -20.23393 8.7951 62.12716 -1.55373 -25.42446 -0.55056 -38.94116 12.62762 7.48467 60.48046 3.14686 9.80252 -0.56524 -45.4174 -13.54832 -9.34556
-0.42263 -0.46546 0.14689 28.02767 26.95023 -9.20734 23.45442 5.76048 -9.42844 -33.33108 -4.99632 -0.82784 119.85972 -35.90313 59.9064 109.30877 105.44112 -23.84872 -7.90604 121.68254 43.31252 -55.50429 109.16572 -100.63263 -15.78319 8.31451 62.14622 -1.45858 -25.34367 -0.55073 -39.19446 12.48267 7.44476 60.54215 3.01047 10.17342 -0.56517 -45.60485 -13.36123 -9.30764
-0.42223 -0.46532 0.14679 28.05938 26.90927 -9.22673 23.48292 5.73944 -9.45596 -33.46674 -4.96973 -0.82784 118.34165 -35.30912 58.30264 109.35831 101.82982 -20.62576 -7.75898 120.23394 42.56701 -53.61601 109.15508 -95.32918 -12.29027 7.94079 62.13669 -1.37232 -25.24266 -0.551 -39.42053 12.35188 7.38922 60.63236 2.8606 10.5135 -0.56513 -45.75816 -13.18159 -9.2623
-0.4218 -0.46518 0.14669 28.08422 26.86532 -9.24349 23.51767 5.71559 -9.49064 -33.61151 -4.94636 -0.82785 116.55463 -34.5866 56.41695 109.40715 97.64518 -16.91653 -7.5808 118.52158 41.6653 -51.38199 109.13496 -89.13118 -8.22127 7.50307 62.13189 -1.28402 -25.14602 -0.55122 -39.66771 12.24229 7.35516 60.71938 2.72378 10.88778 -0.56497 -45.93151 -12.99099 -9.21687
-0.42142 -0.46505 0.1466 28.12232 26.83239 -9.26496 23.53714 5.69483 -9.51055 -33.74363 -4.91656 -0.82786 115.14925 -34.04963 54.91425 109.46422 94.21866 -13.85883 -7.44231 117.15556 40.98017 -49.60932 109.13813 -84.14568 -4.92794 7.15171 62.13065 -1.19587 -25.04887 -0.55149 -39.88174 12.07818 7.2823 60.79864 2.5663 11.20352 -0.56491 -46.07889 -12.82117 -9.1757
-0.42117 -0.46493 0.14653 28.20061 26.82486 -9.30174 23.51712 5.68505 -9.49181 -33.83627 -4.86683 -0.82786 114.94304 -34.0968 54.62603 109.54181 93.15445 -12.84231 -7.42981 116.89771 40.98458 -49.30444 109.20639 -82.98128 -4.08809 7.06956 62.12554 -1.11305 -24.93341 -0.55199 -40.00008 11.76855 7.09505 60.87297 2.34083 11.34305 -0.56485 -46.14112 -12.71315 -9.14508
-0.42097 -0.46483 0.14647 28.29177 26.82782 -9.34302 23.48201 5.67878 -9.45779 -33.9149 -4.81092 -0.82786 115.1495 -34.34267 54.75735 109.6259 92.93802 -12.54894 -7.46187 117.02528 41.22423 -49.51028 109.29656 -83.15685 -4.10632 7.08358 62.12116 -1.03116 -24.8159 -0.55256 -40.08202 11.40601 6.86854 60.94143 2.09517 11.42286 -0.56481 -46.17497 -12.62653 -9.118
-0.42076 -0.46472 0.14641 28.37512 26.82616 -9.38109 23.45348 5.67106 -9.42916 -33.99862 -4.75906 -0.82786 115.19446 -34.50666 54.73405 109.70393 92.46479 -12.01767 -7.48042 117.01607 41.36941 -49.53192 109.3734 -82.85368 -3.81678 7.06596 62.11507 -0.94887 -24.70175 -0.55308 -40.17528 11.07029 6.66113 61.01187 1.86275 11.53192 -0.56478 -46.22083 -12.52947 -9.08785
-0.42051 -0.4646 0.14634 28.46667 26.82455 -9.42395 23.42565 5.66234 -9.40696 -34.08866 -4.70194 -0.82786 115.11566 -34.62914 54.54318 109.79608 91.42573 -11.07861 -7.46933 116.82372 41.45062 -49.32464 109.46508 -81.93301 -3.13533 6.99304 62.11706 -0.86584 -24.5786 -0.55363 -40.29174 10.72099 6.44876 61.08335 1.61385 11.63335 -0.56473 -46.27272 -12.43493 -9.06433
-0.42034 -0.4645 0.1463 28.54423 26.82508 -9.45799 23.3931 5.65669 -9.36794 -34.16188 -4.65434 -0.82786 115.38709 -34.88229 54.79413 109.85997 91.73914 -11.14484 -7.52877 117.10456 41.72148 -49.71557 109.53084 -82.61771 -3.47564 7.05752 62.1015 -0.78475 -24.47368 -0.55415 -40.35128 10.38856 6.23764 61.1517 1.39425 11.73633 -0.56469 -46.30433 -12.34041 -9.02768
-0.42042 -0.46447 0.14636 28.58003 26.82875 -9.46619 23.34951 5.65855 -9.2844 -34.19161 -4.63425 -0.82787 116.66209 -35.51446 56.32373 109.84456 96.03976 -14.1301 -7.80046 118.69432 42.50555 -51.75744 109.51934 -87.71332 -6.61771 7.50599 62.03772 -0.70965 -24.41365 -0.55456 -40.25653 10.11042 6.03495 61.21615 1.26017 11.85325 -0.56467 -46.28819 -12.24074 -8.95368
-0.42058 -0.46446 0.14646 28.60136 26.83416 -9.46545 23.30203 5.66345 -9.18482 -34.20478 -4.62401 -0.82787 118.25552 -36.2616 58.25999 109.80037 101.60199 -18.05448 -8.13722 120.73209 43.46533 -54.36463 109.48102 -94.33122 -10.72953 8.08489 61.9559 -0.63644 -24.37277 -0.55493 -40.1066 9.85233 5.83567 61.27728 1.15625 11.97402 -0.56465 -46.25215 -12.14052 -8.86637
-0.42069 -0.46443 0.14654 28.62931 26.83877 -9.46906 23.25755 5.6671 -9.0937 -34.22575 -4.60946 -0.82787 119.61411 -36.91262 59.90561 109.76887 106.28623 -21.34111 -8.42557 122.50718 44.3167 -56.63891 109.45496 -100.07022 -14.28459 8.587 61.88171 -0.56182 -24.3269 -0.55532 -39.98569 9.58857 5.6377 61.33818 1.03862 12.09658 -0.56463 -46.22397 -12.04048 -8.78512
-0.42082 -0.46441 0.14663 28.65741 26.84374 -9.47157 23.20746 5.67036 -8.99696 -34.24528 -4.59398 -0.82788 121.35843 -37.75108 62.00248 109.73886 112.25892 -25.52439 -8.79328 124.54931 45.29863 -59.25689 109.42904 -106.65946 -18.3681 9.16741 61.80984 -0.48935 -24.26577 -0.55569 -39.84706 9.30802 5.42613 61.40649 0.92024 12.20393 -0.5646 -46.19951 -11.94106 -8.70366
-0.42094 -0.46439 0.14671 28.68171 26.84831 -9.47423 23.16818 5.67504 -8.9085 -34.2638 -4.58288 -0.82788 122.38059 -38.22949 63.26277 109.69934 115.86949 -28.07675 -9.01269 126.1308 46.04475 -61.27956 109.39659 -111.80286 -21.55808 9.61305 61.72904 -0.41311 -24.24041 -0.55609 -39.73248 9.06836 5.24445 61.45827 0.81092 12.34241 -0.5646 -46.16334 -11.84047 -8.61982
-0.42102 -0.46439 0.14676 28.69794 26.85055 -9.47923 23.1613 5.68339 -8.84542 -34.28593 -4.58121 -0.82788 121.23499 -37.63644 62.00776 109.63612 112.3642 -25.69654 -8.78822 126.38546 46.12091 -61.58646 109.34903 -112.75975 -22.15591 9.66799 61.62609 -0.32375 -24.31422 -0.5566 -39.69989 8.93317 5.1426 61.46866 0.71871 12.5858 -0.56466 -46.0961 -11.73199 -8.52917
-0.42109 -0.46439 0.14681 28.71098 26.85241 -9.4847 23.16525 5.69296 -8.79158 -34.30725 -4.58368 -0.82788 119.36712 -36.68504 59.9141 109.56506 106.48664 -21.67577 -8.41539 126.1525 45.94983 -61.26429 109.29637 -112.1807 -21.80299 9.58083 61.51517 -0.23094 -24.42252 -0.55714 -39.69318 8.83931 5.07123 61.46195 0.63482 12.85727 -0.56475 -46.01846 -11.62313 -8.43718
-0.42115 -0.46439 0.14685 28.72621 26.85497 -9.49012 23.16324 5.70162 -8.73446 -34.32744 -4.5844 -0.82789 117.89114 -35.92922 58.27218 109.5006 101.87845 -18.53399 -8.12247 126.10056 45.87271 -61.17854 109.24836 -112.16688 -21.79848 9.54827 61.40904 -0.14118 -24.51161 -0.55765 -39.67345 8.7292 4.98737 61.46081 0.54751 13.10276 -0.56483 -45.9482 -11.51752 -8.34811
